<svg xmlns="http://www.w3.org/2000/svg" viewBox="0 0 1200 460" role="img" preserveAspectRatio="xMidYMid meet">
<rect x="0" y="0" width="1200" height="460" fill="#f3eee2"/>

<!-- ===================== BACKGROUND SKY FIELD (horror vacui) ===================== -->
<!-- big block field so paper never reads as void; pattern packed over it with paths -->
<rect x="16" y="16" width="1168" height="428" fill="#ebe4d3"/>

<!-- left sky: rows of dots -->
<g fill="#5c5346">
<circle cx="70" cy="70" r="3.2"/><circle cx="110" cy="72" r="3.2"/><circle cx="150" cy="69" r="3.2"/><circle cx="190" cy="73" r="3.2"/><circle cx="230" cy="70" r="3.2"/><circle cx="270" cy="72" r="3.2"/><circle cx="310" cy="69" r="3.2"/><circle cx="350" cy="72" r="3.2"/>
<circle cx="90" cy="106" r="3.2"/><circle cx="130" cy="108" r="3.2"/><circle cx="170" cy="105" r="3.2"/><circle cx="210" cy="109" r="3.2"/><circle cx="250" cy="106" r="3.2"/><circle cx="290" cy="108" r="3.2"/><circle cx="330" cy="105" r="3.2"/>
<circle cx="72" cy="142" r="3.2"/><circle cx="112" cy="144" r="3.2"/><circle cx="152" cy="141" r="3.2"/><circle cx="192" cy="145" r="3.2"/><circle cx="232" cy="142" r="3.2"/><circle cx="272" cy="144" r="3.2"/>
</g>
<!-- right sky: rows of dots -->
<g fill="#5c5346">
<circle cx="850" cy="71" r="3.2"/><circle cx="890" cy="73" r="3.2"/><circle cx="930" cy="70" r="3.2"/><circle cx="970" cy="72" r="3.2"/><circle cx="1010" cy="69" r="3.2"/><circle cx="1050" cy="72" r="3.2"/><circle cx="1090" cy="70" r="3.2"/><circle cx="1130" cy="72" r="3.2"/>
<circle cx="870" cy="107" r="3.2"/><circle cx="910" cy="109" r="3.2"/><circle cx="950" cy="106" r="3.2"/><circle cx="990" cy="108" r="3.2"/><circle cx="1030" cy="105" r="3.2"/><circle cx="1070" cy="108" r="3.2"/><circle cx="1110" cy="106" r="3.2"/>
<circle cx="930" cy="143" r="3.2"/><circle cx="970" cy="145" r="3.2"/><circle cx="1010" cy="142" r="3.2"/><circle cx="1050" cy="144" r="3.2"/><circle cx="1090" cy="141" r="3.2"/><circle cx="1130" cy="144" r="3.2"/>
</g>

<!-- little 6-tick suns in sky corners -->
<g stroke="#d59a2a" stroke-width="2.5" fill="none" stroke-linecap="round">
<g transform="translate(60,200)"><circle r="7" fill="#d59a2a" stroke="none"/><line x1="0" y1="-13" x2="0" y2="-19"/><line x1="11" y1="-7" x2="16" y2="-10"/><line x1="11" y1="7" x2="16" y2="10"/><line x1="0" y1="13" x2="0" y2="19"/><line x1="-11" y1="7" x2="-16" y2="10"/><line x1="-11" y1="-7" x2="-16" y2="-10"/></g>
<g transform="translate(1140,200)"><circle r="7" fill="#d59a2a" stroke="none"/><line x1="0" y1="-13" x2="0" y2="-19"/><line x1="11" y1="-7" x2="16" y2="-10"/><line x1="11" y1="7" x2="16" y2="10"/><line x1="0" y1="13" x2="0" y2="19"/><line x1="-11" y1="7" x2="-16" y2="10"/><line x1="-11" y1="-7" x2="-16" y2="-10"/></g>
</g>

<!-- small leaf rows in sky -->
<g fill="#4f8a3d" stroke="#2b2620" stroke-width="1.3">
<path d="M40 250 q9 -10 18 0 q-9 10 -18 0 Z"/><path d="M40 285 q9 -10 18 0 q-9 10 -18 0 Z"/><path d="M40 320 q9 -10 18 0 q-9 10 -18 0 Z"/><path d="M40 355 q9 -10 18 0 q-9 10 -18 0 Z"/>
<path d="M1142 250 q9 -10 18 0 q-9 10 -18 0 Z"/><path d="M1142 285 q9 -10 18 0 q-9 10 -18 0 Z"/><path d="M1142 320 q9 -10 18 0 q-9 10 -18 0 Z"/><path d="M1142 355 q9 -10 18 0 q-9 10 -18 0 Z"/>
</g>

<!-- diagonal hatching panels filling mid sky behind canopy -->
<g stroke="#5c5346" stroke-width="1.2">
<line x1="95" y1="175" x2="135" y2="215"/><line x1="115" y1="175" x2="155" y2="215"/><line x1="135" y1="175" x2="175" y2="215"/><line x1="155" y1="175" x2="195" y2="215"/>
<line x1="1010" y1="175" x2="1050" y2="215"/><line x1="1030" y1="175" x2="1070" y2="215"/><line x1="1050" y1="175" x2="1090" y2="215"/><line x1="1070" y1="175" x2="1110" y2="215"/>
</g>

<!-- ===================== DOUBLE-LINE BORDER + TICK CHANNEL ===================== -->
<rect x="16" y="16" width="1168" height="428" fill="none" stroke="#2b2620" stroke-width="3.2"/>
<rect x="23" y="23" width="1154" height="414" fill="none" stroke="#2b2620" stroke-width="3.2"/>
<!-- dot channel between the two borders -->
<g fill="#2b2620">
<!-- top & bottom rows of dots -->
<g id="p4-dotrow">
<circle cx="40" cy="19.5" r="1.9"/><circle cx="64" cy="19.5" r="1.9"/><circle cx="88" cy="19.5" r="1.9"/><circle cx="112" cy="19.5" r="1.9"/><circle cx="136" cy="19.5" r="1.9"/><circle cx="160" cy="19.5" r="1.9"/><circle cx="184" cy="19.5" r="1.9"/><circle cx="208" cy="19.5" r="1.9"/><circle cx="232" cy="19.5" r="1.9"/><circle cx="256" cy="19.5" r="1.9"/><circle cx="280" cy="19.5" r="1.9"/><circle cx="304" cy="19.5" r="1.9"/><circle cx="328" cy="19.5" r="1.9"/><circle cx="352" cy="19.5" r="1.9"/><circle cx="376" cy="19.5" r="1.9"/><circle cx="400" cy="19.5" r="1.9"/><circle cx="424" cy="19.5" r="1.9"/><circle cx="448" cy="19.5" r="1.9"/><circle cx="472" cy="19.5" r="1.9"/><circle cx="496" cy="19.5" r="1.9"/><circle cx="520" cy="19.5" r="1.9"/><circle cx="544" cy="19.5" r="1.9"/><circle cx="568" cy="19.5" r="1.9"/><circle cx="592" cy="19.5" r="1.9"/><circle cx="616" cy="19.5" r="1.9"/><circle cx="640" cy="19.5" r="1.9"/><circle cx="664" cy="19.5" r="1.9"/><circle cx="688" cy="19.5" r="1.9"/><circle cx="712" cy="19.5" r="1.9"/><circle cx="736" cy="19.5" r="1.9"/><circle cx="760" cy="19.5" r="1.9"/><circle cx="784" cy="19.5" r="1.9"/><circle cx="808" cy="19.5" r="1.9"/><circle cx="832" cy="19.5" r="1.9"/><circle cx="856" cy="19.5" r="1.9"/><circle cx="880" cy="19.5" r="1.9"/><circle cx="904" cy="19.5" r="1.9"/><circle cx="928" cy="19.5" r="1.9"/><circle cx="952" cy="19.5" r="1.9"/><circle cx="976" cy="19.5" r="1.9"/><circle cx="1000" cy="19.5" r="1.9"/><circle cx="1024" cy="19.5" r="1.9"/><circle cx="1048" cy="19.5" r="1.9"/><circle cx="1072" cy="19.5" r="1.9"/><circle cx="1096" cy="19.5" r="1.9"/><circle cx="1120" cy="19.5" r="1.9"/><circle cx="1144" cy="19.5" r="1.9"/><circle cx="1160" cy="19.5" r="1.9"/>
</g>
<use href="#p4-dotrow" transform="translate(0,421)"/>
<!-- left & right columns of dots -->
<g id="p4-dotcol">
<circle cx="19.5" cy="40" r="1.9"/><circle cx="19.5" cy="64" r="1.9"/><circle cx="19.5" cy="88" r="1.9"/><circle cx="19.5" cy="112" r="1.9"/><circle cx="19.5" cy="136" r="1.9"/><circle cx="19.5" cy="160" r="1.9"/><circle cx="19.5" cy="184" r="1.9"/><circle cx="19.5" cy="208" r="1.9"/><circle cx="19.5" cy="232" r="1.9"/><circle cx="19.5" cy="256" r="1.9"/><circle cx="19.5" cy="280" r="1.9"/><circle cx="19.5" cy="304" r="1.9"/><circle cx="19.5" cy="328" r="1.9"/><circle cx="19.5" cy="352" r="1.9"/><circle cx="19.5" cy="376" r="1.9"/><circle cx="19.5" cy="400" r="1.9"/>
</g>
<use href="#p4-dotcol" transform="translate(1141,0)"/>
</g>

<!-- corner motifs: lotus-bud rosettes -->
<g stroke="#2b2620" stroke-width="2.2" fill="#bb3b2c">
<g id="p4-corner"><circle cx="40" cy="40" r="6" fill="#d59a2a"/><path d="M40 28 q5 8 0 12 q-5 -4 0 -12 Z" fill="#4f8a3d"/><path d="M52 40 q-8 5 -12 0 q4 -5 12 0 Z" fill="#4f8a3d"/><path d="M40 52 q5 -8 0 -12 q-5 4 0 12 Z" fill="#4f8a3d"/><path d="M28 40 q8 5 12 0 q-4 5 -12 0 Z" fill="#4f8a3d"/></g>
</g>
<use href="#p4-corner" transform="translate(1120,0)"/>
<use href="#p4-corner" transform="translate(0,380)"/>
<use href="#p4-corner" transform="translate(1120,380)"/>

<!-- ===================== KOHBAR POND (flat indigo) ===================== -->
<path d="M120 360 q480 -34 960 0 q12 38 0 60 q-480 26 -960 0 q-10 -28 0 -60 Z" fill="#344a8c" stroke="#2b2620" stroke-width="3"/>
<!-- dotted ripples in pond -->
<g fill="#ebe4d3">
<circle cx="200" cy="382" r="2.4"/><circle cx="240" cy="390" r="2.4"/><circle cx="280" cy="384" r="2.4"/><circle cx="320" cy="392" r="2.4"/><circle cx="360" cy="386" r="2.4"/><circle cx="430" cy="392" r="2.4"/><circle cx="470" cy="386" r="2.4"/><circle cx="730" cy="386" r="2.4"/><circle cx="770" cy="392" r="2.4"/><circle cx="840" cy="384" r="2.4"/><circle cx="880" cy="392" r="2.4"/><circle cx="920" cy="386" r="2.4"/><circle cx="960" cy="392" r="2.4"/><circle cx="1000" cy="386" r="2.4"/>
<circle cx="220" cy="406" r="2.4"/><circle cx="270" cy="402" r="2.4"/><circle cx="330" cy="406" r="2.4"/><circle cx="900" cy="406" r="2.4"/><circle cx="960" cy="402" r="2.4"/><circle cx="1010" cy="406" r="2.4"/>
</g>
<!-- concentric ripple arcs -->
<g fill="none" stroke="#ebe4d3" stroke-width="1.6">
<path d="M170 398 q40 -12 80 0"/><path d="M160 408 q50 -14 100 0"/>
<path d="M940 398 q40 -12 80 0"/><path d="M950 408 q50 -14 100 0"/>
</g>

<!-- TWO PROFILE FISH in pond -->
<g stroke="#2b2620" stroke-width="2.4">
<!-- left fish facing right -->
<g>
<path d="M250 400 q40 -26 86 0 q-40 26 -86 0 Z" fill="#2e8c84"/>
<path d="M250 400 l-26 -16 l8 16 l-8 16 Z" fill="# d59a2a" fill-rule="evenodd"/>
<path d="M250 400 l-26 -16 l8 16 l-8 16 Z" fill="#d59a2a"/>
<!-- almond fish-eye, profile -->
<ellipse cx="316" cy="396" rx="7.5" ry="5" fill="#f3eee2"/><circle cx="316" cy="396" r="3.4" fill="#2b2620"/><circle cx="316" cy="396" r="1.3" fill="#f3eee2"/>
<!-- scale arcs -->
<g fill="none" stroke="#f3eee2" stroke-width="1.3"><path d="M270 392 q6 8 0 16"/><path d="M284 390 q6 10 0 20"/><path d="M298 390 q6 10 0 20"/></g>
</g>
<!-- right fish facing left -->
<g>
<path d="M950 400 q-40 -26 -86 0 q40 26 86 0 Z" fill="#2e8c84"/>
<path d="M950 400 l26 -16 l-8 16 l8 16 Z" fill="#d59a2a"/>
<ellipse cx="884" cy="396" rx="7.5" ry="5" fill="#f3eee2"/><circle cx="884" cy="396" r="3.4" fill="#2b2620"/><circle cx="884" cy="396" r="1.3" fill="#f3eee2"/>
<g fill="none" stroke="#f3eee2" stroke-width="1.3"><path d="M930 392 q-6 8 0 16"/><path d="M916 390 q-6 10 0 20"/><path d="M902 390 q-6 10 0 20"/></g>
</g>
</g>

<!-- ===================== ROOTS reaching into pond ===================== -->
<g fill="none" stroke="#2b2620" stroke-width="3" stroke-linecap="round">
<path d="M600 330 q-30 24 -70 38 q-20 8 -34 22"/>
<path d="M600 330 q-12 26 -10 56"/>
<path d="M600 330 q14 26 12 56"/>
<path d="M600 330 q30 24 70 38 q20 8 34 22"/>
<path d="M560 348 q-24 12 -40 30"/>
<path d="M640 348 q24 12 40 30"/>
</g>
<g fill="#5c5346"><circle cx="496" cy="390" r="3"/><circle cx="520" cy="380" r="3"/><circle cx="704" cy="390" r="3"/><circle cx="680" cy="380" r="3"/></g>

<!-- ===================== TRUNK (double outline + hatching) ===================== -->
<path d="M572 340 q-6 -90 6 -150 q8 -36 22 -36 q14 0 22 36 q12 60 6 150 Z" fill="#ebe4d3" stroke="#2b2620" stroke-width="3.4"/>
<path d="M582 336 q-5 -86 6 -142 q6 -28 12 -28 q6 0 12 28 q11 56 6 142 Z" fill="none" stroke="#2b2620" stroke-width="2"/>
<!-- chevron hatching inside trunk -->
<g fill="none" stroke="#5c5346" stroke-width="1.6">
<path d="M588 320 l12 -8 l12 8"/><path d="M588 300 l12 -8 l12 8"/><path d="M588 280 l12 -8 l12 8"/><path d="M588 260 l12 -8 l12 8"/><path d="M590 240 l10 -8 l10 8"/><path d="M591 220 l9 -8 l9 8"/><path d="M592 200 l8 -7 l8 7"/><path d="M593 182 l7 -6 l7 6"/>
</g>

<!-- branches -->
<g fill="none" stroke="#2b2620" stroke-width="3.2" stroke-linecap="round">
<path d="M600 178 q-60 -8 -120 -40"/>
<path d="M600 178 q60 -8 120 -40"/>
<path d="M600 168 q-40 -30 -96 -52"/>
<path d="M600 168 q40 -30 96 -52"/>
<path d="M600 160 q0 -34 0 -64"/>
</g>

<!-- ===================== CANOPY (double-outline) ===================== -->
<path d="M600 96
  q-110 -18 -180 18
  q-70 26 -60 70
  q-110 6 -110 70
  q0 56 92 60
  q-8 50 70 56
  q60 6 96 -28
  q36 34 96 28
  q78 -6 70 -56
  q92 -4 92 -60
  q0 -64 -110 -70
  q10 -44 -60 -70
  q-70 -36 -180 -18 Z" fill="#4f8a3d" stroke="#2b2620" stroke-width="3.6"/>
<path d="M600 110
  q-100 -16 -166 16
  q-62 24 -54 62
  q-100 6 -100 62
  q0 48 84 52
  q-6 44 62 50
  q54 6 88 -26
  q34 32 88 26
  q68 -6 62 -50
  q84 -4 84 -52
  q0 -56 -100 -62
  q8 -38 -54 -62
  q-64 -32 -166 -16 Z" fill="none" stroke="#2b2620" stroke-width="2"/>

<!-- canopy interior: packed leaves, buds, blossoms, scale fields, dots -->
<!-- fish-scale arc field across canopy -->
<g fill="none" stroke="#2b2620" stroke-width="1.4">
<path d="M330 150 q14 16 0 32"/><path d="M360 150 q14 16 0 32"/><path d="M390 150 q14 16 0 32"/><path d="M420 150 q14 16 0 32"/><path d="M450 150 q14 16 0 32"/><path d="M480 150 q14 16 0 32"/>
<path d="M720 150 q14 16 0 32"/><path d="M750 150 q14 16 0 32"/><path d="M780 150 q14 16 0 32"/><path d="M810 150 q14 16 0 32"/><path d="M840 150 q14 16 0 32"/><path d="M870 150 q14 16 0 32"/>
<path d="M345 188 q14 16 0 32"/><path d="M375 188 q14 16 0 32"/><path d="M405 188 q14 16 0 32"/><path d="M435 188 q14 16 0 32"/><path d="M465 188 q14 16 0 32"/>
<path d="M705 188 q14 16 0 32"/><path d="M735 188 q14 16 0 32"/><path d="M765 188 q14 16 0 32"/><path d="M795 188 q14 16 0 32"/><path d="M825 188 q14 16 0 32"/>
</g>

<!-- ochre buds packed -->
<g fill="#d59a2a" stroke="#2b2620" stroke-width="1.4">
<path d="M300 140 q8 -12 16 0 q-8 8 -16 0 Z"/><path d="M520 132 q8 -12 16 0 q-8 8 -16 0 Z"/><path d="M660 132 q8 -12 16 0 q-8 8 -16 0 Z"/><path d="M900 140 q8 -12 16 0 q-8 8 -16 0 Z"/>
<path d="M270 200 q8 -12 16 0 q-8 8 -16 0 Z"/><path d="M340 250 q8 -12 16 0 q-8 8 -16 0 Z"/><path d="M520 230 q8 -12 16 0 q-8 8 -16 0 Z"/><path d="M660 230 q8 -12 16 0 q-8 8 -16 0 Z"/><path d="M850 250 q8 -12 16 0 q-8 8 -16 0 Z"/><path d="M920 200 q8 -12 16 0 q-8 8 -16 0 Z"/>
<path d="M420 110 q8 -12 16 0 q-8 8 -16 0 Z"/><path d="M770 110 q8 -12 16 0 q-8 8 -16 0 Z"/>
</g>

<!-- leaf rows (flat green leaves with vein) -->
<g fill="#2e8c84" stroke="#2b2620" stroke-width="1.5">
<g id="p4-leaf"><path d="M0 0 q11 -13 22 0 q-11 13 -22 0 Z"/></g>
<use href="#p4-leaf" transform="translate(380,160)"/><use href="#p4-leaf" transform="translate(410,170)"/><use href="#p4-leaf" transform="translate(560,160)"/><use href="#p4-leaf" transform="translate(640,160)"/><use href="#p4-leaf" transform="translate(790,160)"/><use href="#p4-leaf" transform="translate(820,170)"/>
<use href="#p4-leaf" transform="translate(330,210)"/><use href="#p4-leaf" transform="translate(470,200)"/><use href="#p4-leaf" transform="translate(560,210)"/><use href="#p4-leaf" transform="translate(640,210)"/><use href="#p4-leaf" transform="translate(730,200)"/><use href="#p4-leaf" transform="translate(870,210)"/>
<use href="#p4-leaf" transform="translate(290,170)"/><use href="#p4-leaf" transform="translate(890,170)"/>
</g>
<!-- leaf veins -->
<g stroke="#f3eee2" stroke-width="1.2">
<line x1="380" y1="160" x2="402" y2="160"/><line x1="560" y1="160" x2="582" y2="160"/><line x1="640" y1="160" x2="662" y2="160"/><line x1="790" y1="160" x2="812" y2="160"/>
</g>

<!-- vermilion blossoms (ONLY two focal) -->
<g stroke="#2b2620" stroke-width="2">
<g transform="translate(470,150)"><circle r="13" fill="#bb3b2c"/><circle r="5" fill="#d59a2a"/><g fill="#bb3b2c"><path d="M0 -13 q5 -8 0 -16 q-5 8 0 16 Z"/><path d="M13 0 q8 -5 16 0 q-8 5 -16 0 Z"/><path d="M0 13 q5 8 0 16 q-5 -8 0 -16 Z"/><path d="M-13 0 q-8 -5 -16 0 q8 5 16 0 Z"/></g></g>
<g transform="translate(730,150)"><circle r="13" fill="#bb3b2c"/><circle r="5" fill="#d59a2a"/><g fill="#bb3b2c"><path d="M0 -13 q5 -8 0 -16 q-5 8 0 16 Z"/><path d="M13 0 q8 -5 16 0 q-8 5 -16 0 Z"/><path d="M0 13 q5 8 0 16 q-5 -8 0 -16 Z"/><path d="M-13 0 q-8 -5 -16 0 q8 5 16 0 Z"/></g></g>
</g>

<!-- plum accent flowers -->
<g fill="#6e4a93" stroke="#2b2620" stroke-width="1.6">
<g transform="translate(360,260)"><circle r="8" fill="#6e4a93"/><circle r="3" fill="#ebe4d3"/></g>
<g transform="translate(840,260)"><circle r="8" fill="#6e4a93"/><circle r="3" fill="#ebe4d3"/></g>
<g transform="translate(600,240)"><circle r="8" fill="#6e4a93"/><circle r="3" fill="#ebe4d3"/></g>
</g>

<!-- dot fill scattered in canopy gaps -->
<g fill="#2b2620">
<circle cx="320" cy="180" r="2.2"/><circle cx="345" cy="170" r="2.2"/><circle cx="500" cy="180" r="2.2"/><circle cx="700" cy="180" r="2.2"/><circle cx="860" cy="180" r="2.2"/><circle cx="880" cy="180" r="2.2"/>
<circle cx="300" cy="240" r="2.2"/><circle cx="500" cy="250" r="2.2"/><circle cx="700" cy="250" r="2.2"/><circle cx="900" cy="240" r="2.2"/>
<circle cx="600" cy="130" r="2.2"/><circle cx="440" cy="130" r="2.2"/><circle cx="760" cy="130" r="2.2"/>
</g>

<!-- ===================== TWO NESTING PROFILE BIRDS ===================== -->
<g stroke="#2b2620" stroke-width="2.4">
<!-- left bird facing right (toward trunk) -->
<g>
<path d="M430 230 q-34 -14 -54 8 q-12 16 6 28 q14 10 36 4 q22 -6 30 -22 q-8 -14 -18 -18 Z" fill="#ochre" />
<path d="M430 230 q-34 -14 -54 8 q-12 16 6 28 q14 10 36 4 q22 -6 30 -22 q-8 -14 -18 -18 Z" fill="#d59a2a"/>
<!-- head profile + beak -->
<path d="M442 226 q14 -4 22 6 q-2 8 -12 8 q-12 0 -16 -8 Z" fill="#d59a2a"/>
<path d="M464 232 l16 2 l-16 6 Z" fill="#bb3b2c"/>
<!-- almond eye -->
<ellipse cx="452" cy="230" rx="5.5" ry="3.6" fill="#f3eee2"/><circle cx="452" cy="230" r="2.4" fill="#2b2620"/><circle cx="452.6" cy="229.3" r="0.9" fill="#f3eee2"/>
<!-- wing scale arcs + tail -->
<g fill="none" stroke="#2b2620" stroke-width="1.3"><path d="M400 232 q6 8 0 16"/><path d="M412 230 q6 9 0 18"/></g>
<path d="M376 238 l-22 -4 l16 14 Z" fill="#4f8a3d"/>
</g>
<!-- right bird facing left (toward trunk) -->
<g>
<path d="M770 230 q34 -14 54 8 q12 16 -6 28 q-14 10 -36 4 q-22 -6 -30 -22 q8 -14 18 -18 Z" fill="#d59a2a"/>
<path d="M758 226 q-14 -4 -22 6 q2 8 12 8 q12 0 16 -8 Z" fill="#d59a2a"/>
<path d="M736 232 l-16 2 l16 6 Z" fill="#bb3b2c"/>
<ellipse cx="748" cy="230" rx="5.5" ry="3.6" fill="#f3eee2"/><circle cx="748" cy="230" r="2.4" fill="#2b2620"/><circle cx="748.6" cy="229.3" r="0.9" fill="#f3eee2"/>
<g fill="none" stroke="#2b2620" stroke-width="1.3"><path d="M800 232 q-6 8 0 16"/><path d="M788 230 q-6 9 0 18"/></g>
<path d="M824 238 l22 -4 l-16 14 Z" fill="#4f8a3d"/>
</g>
</g>

<!-- running vine (bel) along pond bank -->
<g fill="none" stroke="#4f8a3d" stroke-width="2.4">
<path d="M140 350 q24 -16 48 0 q24 16 48 0 q24 -16 48 0 q24 16 48 0"/>
<path d="M820 350 q24 -16 48 0 q24 16 48 0 q24 -16 48 0 q24 16 48 0"/>
</g>
<g fill="#4f8a3d" stroke="#2b2620" stroke-width="1.2">
<path d="M164 344 q7 -9 14 0 q-7 7 -14 0 Z"/><path d="M212 356 q7 -9 14 0 q-7 7 -14 0 Z"/><path d="M260 344 q7 -9 14 0 q-7 7 -14 0 Z"/><path d="M308 356 q7 -9 14 0 q-7 7 -14 0 Z"/>
<path d="M844 344 q7 -9 14 0 q-7 7 -14 0 Z"/><path d="M892 356 q7 -9 14 0 q-7 7 -14 0 Z"/><path d="M940 344 q7 -9 14 0 q-7 7 -14 0 Z"/><path d="M988 356 q7 -9 14 0 q-7 7 -14 0 Z"/>
</g>

<!-- lower-sky filler hatching near trunk base to kill blank paper -->
<g stroke="#5c5346" stroke-width="1.2">
<line x1="470" y1="300" x2="500" y2="330"/><line x1="486" y1="300" x2="516" y2="330"/><line x1="502" y1="300" x2="532" y2="330"/>
<line x1="700" y1="300" x2="670" y2="330"/><line x1="716" y1="300" x2="686" y2="330"/><line x1="732" y1="300" x2="702" y2="330"/>
</g>
<g fill="#5c5346">
<circle cx="450" cy="320" r="2.4"/><circle cx="430" cy="305" r="2.4"/><circle cx="750" cy="320" r="2.4"/><circle cx="770" cy="305" r="2.4"/>
<circle cx="200" cy="320" r="2.6"/><circle cx="240" cy="335" r="2.6"/><circle cx="280" cy="320" r="2.6"/><circle cx="960" cy="320" r="2.6"/><circle cx="1000" cy="335" r="2.6"/><circle cx="1040" cy="320" r="2.6"/>
</g>
</svg>