<svg xmlns="http://www.w3.org/2000/svg" viewBox="0 0 1920 1080" width="1920" height="1080" font-family="ui-monospace, SF Mono, Menlo, Consolas, monospace" role="img" aria-label="Private emem instance — one binary, any cloud, per-tenant identity and algorithm registries; GPU only on cold foundation-encoder bands">
  <title>emem — private cloud deployment</title>
  <desc>The same Rust binary that runs emem.dev runs on the customer's cloud of choice (GCP, AWS, Azure, bare metal). Persistent state is a sled cache + ed25519 identity + manifest CIDs on a per-tenant persistent volume; data is anonymous open-data reads from S3, GCS and CDN; receipts are signed content addresses so a private instance interoperates with the public corpus without trust handshake. GPU only fires on cold foundation-encoder bands via a small Python sidecar over UDS — contention is a scheduling problem (batchable, replicable) not a cost problem.</desc>

  <defs>
    <linearGradient id="bg" x1="0" y1="0" x2="0" y2="1">
      <stop offset="0" stop-color="#0a0a18"/>
      <stop offset="1" stop-color="#02050f"/>
    </linearGradient>
    <linearGradient id="acc" x1="0" y1="0" x2="1" y2="0">
      <stop offset="0" stop-color="#1e3aff"/>
      <stop offset="1" stop-color="#7c3aed"/>
    </linearGradient>
    <linearGradient id="core" x1="0" y1="0" x2="1" y2="1">
      <stop offset="0" stop-color="#161a3a"/>
      <stop offset="1" stop-color="#0c0f28"/>
    </linearGradient>
    <linearGradient id="tenant" x1="0" y1="0" x2="1" y2="1">
      <stop offset="0" stop-color="#1a2540"/>
      <stop offset="1" stop-color="#0f1730"/>
    </linearGradient>
    <pattern id="grid" width="40" height="40" patternUnits="userSpaceOnUse">
      <path d="M40 0 L0 0 0 40" fill="none" stroke="#101637" stroke-width="0.6"/>
    </pattern>
    <marker id="aHot" viewBox="0 0 10 10" refX="9" refY="5" markerWidth="7" markerHeight="7" orient="auto-start-reverse">
      <path d="M0,0 L10,5 L0,10 z" fill="#22c55e"/>
    </marker>
    <marker id="aWarm" viewBox="0 0 10 10" refX="9" refY="5" markerWidth="7" markerHeight="7" orient="auto-start-reverse">
      <path d="M0,0 L10,5 L0,10 z" fill="#f59e0b"/>
    </marker>
    <marker id="aCold" viewBox="0 0 10 10" refX="9" refY="5" markerWidth="7" markerHeight="7" orient="auto-start-reverse">
      <path d="M0,0 L10,5 L0,10 z" fill="#ef4444"/>
    </marker>
    <marker id="aFed" viewBox="0 0 10 10" refX="9" refY="5" markerWidth="7" markerHeight="7" orient="auto-start-reverse">
      <path d="M0,0 L10,5 L0,10 z" fill="#60a5fa"/>
    </marker>
    <marker id="aSig" viewBox="0 0 10 10" refX="9" refY="5" markerWidth="7" markerHeight="7" orient="auto-start-reverse">
      <path d="M0,0 L10,5 L0,10 z" fill="#a78bfa"/>
    </marker>
  </defs>

  <rect width="1920" height="1080" fill="url(#bg)"/>
  <rect width="1920" height="1080" fill="url(#grid)" opacity="0.7"/>

  <!-- ─────────────────────────── HEADER ─────────────────────────── -->
  <g fill="#eaeaea">
    <text x="80" y="86" font-size="40" font-weight="700">emem · private cloud deployment</text>
    <text x="80" y="120" font-size="18" fill="#9aa3b8" letter-spacing="2">ONE BINARY · ANY CLOUD · PER-TENANT IDENTITY + ALGORITHM REGISTRIES · GPU ONLY ON COLD FOUNDATION-ENCODER BANDS</text>
  </g>
  <text x="1840" y="86" text-anchor="end" font-size="20" fill="#9aa3b8">31 / 31</text>
  <line x1="80" y1="144" x2="1840" y2="144" stroke="#1f2752" stroke-width="1"/>

  <!-- ─────────────────────────── COLUMN HEADERS ─────────────────────────── -->
  <g font-size="14" fill="#9aa3b8" letter-spacing="2">
    <text x="170" y="178">CUSTOMER</text>
    <text x="450" y="178">TLS · REST · MCP</text>
    <text x="780" y="178">PRIVATE INSTANCE (one container)</text>
    <text x="1280" y="178">TENANT STATE</text>
    <text x="1580" y="178">OPEN DATA (anonymous)</text>
  </g>

  <!-- ─────────────────────────── CLIENTS ─────────────────────────── -->
  <g transform="translate(120,210)" font-size="15" fill="#cfd9ff">
    <rect x="0" y="0" width="200" height="56" rx="10" fill="#0e1330" stroke="#2a335f"/>
    <text x="16" y="34">Claude · Cursor · MCP</text>

    <rect x="0" y="72" width="200" height="56" rx="10" fill="#0e1330" stroke="#2a335f"/>
    <text x="16" y="106">ChatGPT · Gemini</text>

    <rect x="0" y="144" width="200" height="56" rx="10" fill="#0e1330" stroke="#2a335f"/>
    <text x="16" y="178">LangChain · LlamaIndex</text>

    <rect x="0" y="216" width="200" height="56" rx="10" fill="#0e1330" stroke="#2a335f"/>
    <text x="16" y="250">curl · Python · TS SDK</text>

    <text x="0" y="298" font-size="13" fill="#6c7396">no auth on reads</text>
    <text x="0" y="318" font-size="13" fill="#6c7396">no API keys</text>
  </g>

  <!-- ─────────────────────────── WIRE ─────────────────────────── -->
  <g transform="translate(400,210)">
    <rect x="0" y="0" width="200" height="128" rx="12" fill="url(#core)" stroke="url(#acc)" stroke-width="1.5"/>
    <text x="100" y="38" text-anchor="middle" font-size="20" fill="#eaeaea" font-weight="700">axum</text>
    <text x="100" y="64" text-anchor="middle" font-size="13" fill="#9aa3b8">REST / OpenAPI 3.1</text>
    <text x="100" y="84" text-anchor="middle" font-size="13" fill="#9aa3b8">MCP / JSON-RPC 2.0</text>
    <text x="100" y="104" text-anchor="middle" font-size="13" fill="#9aa3b8">74 routes · 36 tools</text>

    <rect x="0" y="148" width="200" height="74" rx="12" fill="url(#core)" stroke="#2a335f" stroke-width="1"/>
    <text x="100" y="174" text-anchor="middle" font-size="14" fill="#eaeaea" font-weight="700">rustls + ACME</text>
    <text x="100" y="196" text-anchor="middle" font-size="12" fill="#9aa3b8">TLS-ALPN-01 on :443</text>
    <text x="100" y="212" text-anchor="middle" font-size="12" fill="#9aa3b8">no reverse proxy</text>

    <rect x="0" y="240" width="200" height="58" rx="12" fill="url(#core)" stroke="#2a335f" stroke-width="1"/>
    <text x="100" y="266" text-anchor="middle" font-size="13" fill="#eaeaea">/.well-known/emem.json</text>
    <text x="100" y="284" text-anchor="middle" font-size="12" fill="#9aa3b8">responder pubkey</text>
  </g>

  <!-- Client → wire arrows -->
  <g stroke="#22c55e" stroke-width="2" fill="none" marker-end="url(#aHot)">
    <path d="M320,238 L398,272"/>
    <path d="M320,310 L398,278"/>
    <path d="M320,382 L398,286"/>
    <path d="M320,454 L398,294"/>
  </g>

  <!-- ─────────────────────────── PRIVATE INSTANCE ─────────────────────────── -->
  <!-- container border -->
  <g transform="translate(680,200)">
    <rect x="0" y="0" width="540" height="610" rx="20" fill="url(#tenant)" stroke="url(#acc)" stroke-width="2" stroke-dasharray="6 4"/>
    <text x="20" y="32" font-size="14" fill="#9aa3b8" letter-spacing="2">emem-server · 0.0.6 · ~55 MB</text>
    <text x="520" y="32" text-anchor="end" font-size="14" fill="#9aa3b8">ghcr.io/vortx-ai/emem</text>

    <!-- router -->
    <rect x="30" y="60" width="220" height="92" rx="10" fill="url(#core)" stroke="#2a335f"/>
    <text x="140" y="92" text-anchor="middle" font-size="18" fill="#eaeaea" font-weight="700">Router</text>
    <text x="140" y="114" text-anchor="middle" font-size="12" fill="#9aa3b8">primitives ↔ MCP</text>
    <text x="140" y="132" text-anchor="middle" font-size="12" fill="#9aa3b8">openapi + receipts</text>

    <!-- locate -->
    <rect x="290" y="60" width="220" height="92" rx="10" fill="url(#core)" stroke="#2a335f"/>
    <text x="400" y="92" text-anchor="middle" font-size="16" fill="#eaeaea" font-weight="700">Locate cascade</text>
    <text x="400" y="112" text-anchor="middle" font-size="11" fill="#9aa3b8">embedded · geonames-68k</text>
    <text x="400" y="128" text-anchor="middle" font-size="11" fill="#9aa3b8">· cache · photon · nominatim</text>
    <text x="400" y="144" text-anchor="middle" font-size="11" fill="#9aa3b8">polygon: overture divisions</text>

    <!-- sled cache (the hot path) -->
    <rect x="30" y="174" width="480" height="100" rx="10" fill="#0e1330" stroke="#22c55e" stroke-width="1.5"/>
    <text x="270" y="204" text-anchor="middle" font-size="20" fill="#22c55e" font-weight="700">sled hot cache · signed facts</text>
    <text x="270" y="228" text-anchor="middle" font-size="13" fill="#cfd9ff">(cell, band, tslot) → fact_cid → CBOR · ed25519 · ~10 ms</text>
    <text x="270" y="250" text-anchor="middle" font-size="12" fill="#9aa3b8">content-addressed · paid once · amortized forever</text>
    <text x="270" y="266" text-anchor="middle" font-size="11" fill="#6c7396">≈ 99 % of read traffic ends here · never touches a connector, never touches a GPU</text>

    <!-- materializer -->
    <rect x="30" y="296" width="220" height="120" rx="10" fill="url(#core)" stroke="#f59e0b" stroke-width="1.5"/>
    <text x="140" y="324" text-anchor="middle" font-size="16" fill="#f59e0b" font-weight="700">Materializer</text>
    <text x="140" y="346" text-anchor="middle" font-size="11" fill="#9aa3b8">cold-cell dispatch</text>
    <text x="140" y="362" text-anchor="middle" font-size="11" fill="#9aa3b8">connector → decode → sign</text>
    <text x="140" y="382" text-anchor="middle" font-size="11" fill="#cfd9ff">15+ scheme handlers</text>
    <text x="140" y="398" text-anchor="middle" font-size="11" fill="#9aa3b8">~200 ms – 2 s · cached forever</text>

    <!-- sidecar (GPU) -->
    <rect x="290" y="296" width="220" height="120" rx="10" fill="url(#core)" stroke="#ef4444" stroke-width="1.5"/>
    <text x="400" y="324" text-anchor="middle" font-size="16" fill="#ef4444" font-weight="700">Python sidecar</text>
    <text x="400" y="346" text-anchor="middle" font-size="11" fill="#9aa3b8">/run/user/UID/emem.sock</text>
    <text x="400" y="364" text-anchor="middle" font-size="11" fill="#cfd9ff">Prithvi-EO-2.0-300M · Galileo</text>
    <text x="400" y="380" text-anchor="middle" font-size="11" fill="#cfd9ff">Clay · JEPA-v2 dynamics</text>
    <text x="400" y="398" text-anchor="middle" font-size="11" fill="#9aa3b8">CPU works · GPU optional</text>

    <!-- physics solvers -->
    <rect x="30" y="436" width="220" height="60" rx="10" fill="url(#core)" stroke="#2a335f"/>
    <text x="140" y="462" text-anchor="middle" font-size="14" fill="#eaeaea">Physics solvers</text>
    <text x="140" y="482" text-anchor="middle" font-size="11" fill="#9aa3b8">heat · wave · jepa_v2</text>

    <!-- merkle log -->
    <rect x="290" y="436" width="220" height="60" rx="10" fill="url(#core)" stroke="#2a335f"/>
    <text x="400" y="462" text-anchor="middle" font-size="14" fill="#eaeaea">Merkle log</text>
    <text x="400" y="482" text-anchor="middle" font-size="11" fill="#9aa3b8">append-only · per-root proof</text>

    <!-- field boundaries primitive -->
    <rect x="30" y="516" width="480" height="60" rx="10" fill="url(#core)" stroke="#2a335f"/>
    <text x="270" y="542" text-anchor="middle" font-size="14" fill="#eaeaea">Field boundaries · /v1/field_boundaries</text>
    <text x="270" y="562" text-anchor="middle" font-size="11" fill="#9aa3b8">Fields of The World · ~3.17 B agricultural polygons · PMTiles range reads · CC-BY-4.0</text>
  </g>

  <!-- ─────────────────────────── TENANT STATE ─────────────────────────── -->
  <g transform="translate(1244,210)">
    <text x="0" y="-14" font-size="11" fill="#6c7396">$EMEM_DATA — single persistent volume</text>

    <rect x="0" y="0" width="270" height="84" rx="10" fill="url(#core)" stroke="#a78bfa" stroke-width="1.5"/>
    <text x="14" y="28" font-size="14" fill="#a78bfa" font-weight="700">identity.secret.b32</text>
    <text x="14" y="50" font-size="11" fill="#9aa3b8">ed25519 · mode 0600 · tenant key</text>
    <text x="14" y="68" font-size="11" fill="#9aa3b8">every receipt is signed with this</text>

    <rect x="0" y="100" width="270" height="120" rx="10" fill="url(#core)" stroke="#7c3aed" stroke-width="1.5"/>
    <text x="14" y="128" font-size="14" fill="#cfd9ff" font-weight="700">Manifest CIDs · pinned at boot</text>
    <text x="14" y="152" font-size="11" fill="#9aa3b8">algorithms_cid · bands_cid</text>
    <text x="14" y="170" font-size="11" fill="#9aa3b8">sources_cid · schema_cid</text>
    <text x="14" y="190" font-size="11" fill="#cfd9ff">private recipes → private CID</text>
    <text x="14" y="208" font-size="11" fill="#9aa3b8">/v1/algorithms reads from CID</text>

    <rect x="0" y="236" width="270" height="84" rx="10" fill="url(#core)" stroke="#22c55e" stroke-width="1.5"/>
    <text x="14" y="264" font-size="14" fill="#22c55e" font-weight="700">sled hot cache</text>
    <text x="14" y="286" font-size="11" fill="#9aa3b8">facts · attestations · trees</text>
    <text x="14" y="304" font-size="11" fill="#9aa3b8">survives restart · per-tenant</text>

    <rect x="0" y="336" width="270" height="84" rx="10" fill="url(#core)" stroke="#2a335f"/>
    <text x="14" y="364" font-size="14" fill="#eaeaea">geocoder.sled</text>
    <text x="14" y="386" font-size="11" fill="#9aa3b8">place → cell64 · 24 h TTL</text>
    <text x="14" y="404" font-size="11" fill="#9aa3b8">overture bbox + label cached</text>

    <rect x="0" y="436" width="270" height="64" rx="10" fill="url(#core)" stroke="#2a335f"/>
    <text x="14" y="462" font-size="13" fill="#eaeaea">merkle.log</text>
    <text x="14" y="482" font-size="11" fill="#9aa3b8">append-only · proof per fact</text>

    <text x="0" y="528" font-size="13" fill="#9aa3b8" letter-spacing="1">PERSISTENT VOLUME — any cloud</text>
    <g font-size="11" fill="#cfd9ff">
      <text x="0" y="552">GCP   Persistent Disk · Filestore · GCS-FUSE</text>
      <text x="0" y="572">AWS   EBS · EFS · FSx</text>
      <text x="0" y="592">Azure Managed Disk · Files</text>
      <text x="0" y="612">bare  local SSD · NVMe</text>
    </g>
  </g>

  <!-- ─────────────────────────── OPEN DATA ─────────────────────────── -->
  <g transform="translate(1568,210)">
    <text x="0" y="-14" font-size="11" fill="#6c7396">no API keys · anonymous reads from any cloud</text>

    <rect x="0" y="0" width="260" height="120" rx="10" fill="#0e1330" stroke="#2a335f"/>
    <text x="14" y="28" font-size="14" fill="#eaeaea" font-weight="700">AWS opendata</text>
    <text x="14" y="52" font-size="11" fill="#9aa3b8">Overture (us-west-2)</text>
    <text x="14" y="70" font-size="11" fill="#9aa3b8">source.coop FTW PMTiles</text>
    <text x="14" y="88" font-size="11" fill="#9aa3b8">ESA WorldCover · Cop-DEM</text>
    <text x="14" y="106" font-size="11" fill="#9aa3b8">NASA FIRMS · MS PC STAC</text>

    <rect x="0" y="136" width="260" height="100" rx="10" fill="#0e1330" stroke="#2a335f"/>
    <text x="14" y="164" font-size="14" fill="#eaeaea" font-weight="700">GCP public</text>
    <text x="14" y="188" font-size="11" fill="#9aa3b8">Hansen GFC v1.12</text>
    <text x="14" y="206" font-size="11" fill="#9aa3b8">JRC Global Surface Water</text>
    <text x="14" y="224" font-size="11" fill="#9aa3b8">Sentinel-2 L2A on GCS</text>

    <rect x="0" y="252" width="260" height="120" rx="10" fill="#0e1330" stroke="#2a335f"/>
    <text x="14" y="280" font-size="14" fill="#eaeaea" font-weight="700">REST / CDN</text>
    <text x="14" y="304" font-size="11" fill="#9aa3b8">met.no · Open-Meteo · POWER</text>
    <text x="14" y="322" font-size="11" fill="#9aa3b8">ORNL DAAC · GMRT · WorldPop</text>
    <text x="14" y="340" font-size="11" fill="#9aa3b8">TerraClimate · SoilGrids</text>
    <text x="14" y="358" font-size="11" fill="#9aa3b8">GeoNames · ISRIC · CHIRPS</text>

    <rect x="0" y="388" width="260" height="78" rx="10" fill="#0e1330" stroke="#a78bfa" stroke-width="1.5"/>
    <text x="14" y="414" font-size="14" fill="#a78bfa" font-weight="700">Customer proprietary</text>
    <text x="14" y="436" font-size="11" fill="#9aa3b8">private S3 / GCS bucket</text>
    <text x="14" y="454" font-size="11" fill="#9aa3b8">private STAC · in-pod parquet</text>

    <text x="0" y="496" font-size="11" fill="#6c7396">connectors are scheme→handler;</text>
    <text x="0" y="512" font-size="11" fill="#6c7396">adding a private scheme is one</text>
    <text x="0" y="528" font-size="11" fill="#6c7396">file in emem-fetch + one entry</text>
    <text x="0" y="544" font-size="11" fill="#6c7396">in sources-v0.json.</text>
  </g>

  <!-- ─────────────────────────── INTERNAL ARROWS ─────────────────────────── -->
  <!-- wire → router (hot) -->
  <g stroke="#22c55e" stroke-width="2.5" fill="none" marker-end="url(#aHot)">
    <path d="M600,272 L710,266"/>
  </g>

  <!-- router → cache hot path -->
  <g stroke="#22c55e" stroke-width="2" fill="none" marker-end="url(#aHot)">
    <path d="M820,294 L820,374"/>
  </g>
  <!-- cache → router back (signed fact) -->
  <g stroke="#a78bfa" stroke-width="2" fill="none" marker-end="url(#aSig)" stroke-dasharray="4 3">
    <path d="M780,374 L780,294"/>
  </g>

  <!-- router → materializer (warm/cold) -->
  <g stroke="#f59e0b" stroke-width="2" fill="none" marker-end="url(#aWarm)">
    <path d="M820,500 L820,496"/>
  </g>
  <!-- cache → materializer (miss) -->
  <g stroke="#f59e0b" stroke-width="2" fill="none" marker-end="url(#aWarm)" stroke-dasharray="3 3">
    <path d="M780,474 L780,496"/>
  </g>
  <!-- materializer → sidecar -->
  <g stroke="#ef4444" stroke-width="2" fill="none" marker-end="url(#aCold)">
    <path d="M930,556 L970,556"/>
  </g>

  <!-- private instance → tenant state -->
  <g stroke="#a78bfa" stroke-width="2" fill="none" marker-end="url(#aSig)" stroke-dasharray="4 3">
    <path d="M1220,360 L1244,300"/>
    <path d="M1220,470 L1244,470"/>
  </g>

  <!-- private instance → open data -->
  <g stroke="#f59e0b" stroke-width="2" fill="none" marker-end="url(#aWarm)">
    <path d="M1220,556 L1568,260"/>
    <path d="M1220,556 L1568,400"/>
    <path d="M1220,556 L1568,540"/>
  </g>
  <!-- proprietary -->
  <g stroke="#a78bfa" stroke-width="2" fill="none" marker-end="url(#aSig)">
    <path d="M1220,556 L1568,640"/>
  </g>

  <!-- ─────────────────────────── BOTTOM PANEL ─────────────────────────── -->
  <line x1="80" y1="850" x2="1840" y2="850" stroke="#1f2752" stroke-width="1"/>

  <!-- LEFT: Q1 GPU contention answer -->
  <g transform="translate(80,870)">
    <text x="0" y="0" font-size="14" fill="#9aa3b8" letter-spacing="2">Q1 · GPU CONTENTION</text>
    <rect x="0" y="14" width="500" height="170" rx="10" fill="#0a1422" stroke="#ef4444" stroke-width="1.2"/>
    <text x="20" y="46" font-size="16" fill="#ef4444" font-weight="700">scheduling, not cost</text>
    <text x="20" y="76" font-size="12" fill="#cfd9ff">• 99 % of reads end at the sled cache (~10 ms).</text>
    <text x="20" y="94" font-size="12" fill="#cfd9ff">• GPU only fires on cold foundation-encoder bands:</text>
    <text x="20" y="112" font-size="12" fill="#9aa3b8">  Prithvi-EO-2.0 (300 M), Galileo, Clay, JEPA-v2.</text>
    <text x="20" y="130" font-size="12" fill="#cfd9ff">• Each (cell, band, tslot) is paid once and amortized</text>
    <text x="20" y="148" font-size="12" fill="#cfd9ff">  forever via the signed-CBOR content address.</text>
    <text x="20" y="166" font-size="12" fill="#9aa3b8">• Contention surface: sidecar UDS queue depth.</text>
    <text x="20" y="180" font-size="12" fill="#9aa3b8">  Fix: batched worker pool / replicas behind LB.</text>
  </g>

  <!-- MIDDLE: Q2 GCP path -->
  <g transform="translate(610,870)">
    <text x="0" y="0" font-size="14" fill="#9aa3b8" letter-spacing="2">Q2 · DEPLOY ON GCP</text>
    <rect x="0" y="14" width="660" height="170" rx="10" fill="#0a1422" stroke="#22c55e" stroke-width="1.2"/>
    <text x="20" y="46" font-size="16" fill="#22c55e" font-weight="700">one container · two env vars · any cloud</text>
    <g font-size="12" fill="#cfd9ff">
      <text x="20" y="74">1. Pull ghcr.io/vortx-ai/emem:0.0.6 into Artifact Registry.</text>
      <text x="20" y="92">2. Deploy to GKE / Cloud Run / GCE.</text>
      <text x="20" y="110">3. EMEM_DATA = PD / Filestore / GCS-FUSE mount.</text>
      <text x="20" y="128">4. EMEM_SIDECAR_SOCK = in-pod UDS (optional GPU tier).</text>
      <text x="20" y="146">5. ACME on :443 works in-process — no Cloud Load Balancer needed.</text>
      <text x="20" y="164">6. Pin tenant manifest CIDs for proprietary algorithms / bands.</text>
    </g>
    <text x="20" y="184" font-size="11" fill="#6c7396">no AWS-only services in the read path; same Rust binary every cloud runs.</text>
  </g>

  <!-- RIGHT: Federation -->
  <g transform="translate(1300,870)">
    <text x="0" y="0" font-size="14" fill="#9aa3b8" letter-spacing="2">FEDERATION</text>
    <rect x="0" y="14" width="540" height="170" rx="10" fill="#0a1422" stroke="#60a5fa" stroke-width="1.2"/>
    <text x="20" y="46" font-size="16" fill="#60a5fa" font-weight="700">private ↔ public · no trust handshake</text>
    <text x="20" y="76" font-size="12" fill="#cfd9ff">Receipts are content-addressed + ed25519-signed.</text>
    <text x="20" y="94" font-size="12" fill="#cfd9ff">Customer's pubkey at /.well-known/emem.json on their</text>
    <text x="20" y="112" font-size="12" fill="#cfd9ff">domain; emem.dev publishes ours. Any client verifies</text>
    <text x="20" y="130" font-size="12" fill="#cfd9ff">either side's receipts offline.</text>
    <text x="20" y="156" font-size="12" fill="#a78bfa">Tenant isolation = distinct identity + distinct CIDs.</text>
    <text x="20" y="174" font-size="12" fill="#9aa3b8">No cross-customer leakage; receipts attribute exactly.</text>
  </g>

  <!-- ─────────────────────────── FOOTER LEGEND ─────────────────────────── -->
  <g transform="translate(80,1054)" font-size="11" fill="#6c7396" letter-spacing="1">
    <circle cx="6" cy="-4" r="4" fill="#22c55e"/>
    <text x="18" y="0">HOT · sled cache · ~10 ms</text>
    <circle cx="266" cy="-4" r="4" fill="#f59e0b"/>
    <text x="278" y="0">WARM · connector materialize · ~200 ms – 2 s</text>
    <circle cx="666" cy="-4" r="4" fill="#ef4444"/>
    <text x="678" y="0">COLD · sidecar / GPU encoder · ~500 ms – 2 s</text>
    <circle cx="1066" cy="-4" r="4" fill="#a78bfa"/>
    <text x="1078" y="0">SIGNED · receipt · ed25519 over canonical CBOR</text>
    <circle cx="1466" cy="-4" r="4" fill="#60a5fa"/>
    <text x="1478" y="0">FEDERATION · verifiable across instances</text>
  </g>
</svg>
