<svg xmlns="http://www.w3.org/2000/svg" viewBox="0 0 1200 630" width="1200" height="630">
  <defs>
    <linearGradient id="bg" x1="0" y1="0" x2="1" y2="1">
      <stop offset="0" stop-color="#0a0a18"/>
      <stop offset="1" stop-color="#0a0a08"/>
    </linearGradient>
    <linearGradient id="acc" x1="0" y1="0" x2="1" y2="1">
      <stop offset="0" stop-color="#0a8"/>
      <stop offset="1" stop-color="#06f"/>
    </linearGradient>
    <radialGradient id="globe" cx="50%" cy="40%" r="60%">
      <stop offset="0" stop-color="#13294b"/>
      <stop offset="0.7" stop-color="#0a1a2c"/>
      <stop offset="1" stop-color="#020812"/>
    </radialGradient>
  </defs>
  <rect width="1200" height="630" fill="url(#bg)"/>
  <g transform="translate(880,160)">
    <circle r="180" fill="url(#globe)" stroke="#0a8" stroke-width="2" opacity="0.95"/>
    <g stroke="#0a8" stroke-width="0.7" fill="none" opacity="0.6">
      <ellipse cx="0" cy="0" rx="180" ry="60"/>
      <ellipse cx="0" cy="0" rx="180" ry="120"/>
      <ellipse cx="0" cy="0" rx="60"  ry="180"/>
      <ellipse cx="0" cy="0" rx="120" ry="180"/>
      <line x1="-180" y1="0" x2="180" y2="0"/>
      <line x1="0" y1="-180" x2="0" y2="180"/>
    </g>
    <g fill="#0a8" opacity="0.85">
      <circle cx="-30" cy="-50" r="4"/>
      <circle cx="40"  cy="-20" r="4"/>
      <circle cx="20"  cy="60"  r="4"/>
      <circle cx="-90" cy="20"  r="4"/>
      <circle cx="100" cy="80"  r="4"/>
    </g>
  </g>
  <g font-family="ui-monospace, SF Mono, Menlo, Consolas, monospace" fill="#eaeaea">
    <text x="80" y="180" font-size="84" font-weight="700">emem</text>
    <text x="80" y="240" font-size="32" fill="#9aa" letter-spacing="2">EARTH MEMORY PROTOCOL</text>
    <text x="80" y="320" font-size="34" fill="#cfd">Cite-able, content-addressed, signed</text>
    <text x="80" y="364" font-size="34" fill="#cfd">memory of every place on Earth.</text>
    <text x="80" y="430" font-size="28" fill="#7af">1 protocol · 8 primitives · ed25519 receipts</text>
    <text x="80" y="468" font-size="28" fill="#7af">Pure Rust · Open data · Apache-2.0</text>
    <text x="80" y="560" font-size="32" fill="url(#acc)" font-weight="700">https://emem.dev</text>
    <text x="80" y="600" font-size="22" fill="#888">github.com/Vortx-AI/emem</text>
  </g>
</svg>
